<mxfile host="app.diagrams.net" agent="Mozilla/5.0 (Windows NT 10.0; Win64; x64) AppleWebKit/537.36 (KHTML, like Gecko) Chrome/140.0.0.0 Safari/537.36 Edg/140.0.0.0" version="28.2.3">
  <diagram name="Página-1" id="9r8EZG78mbZ4fFqviel-">
    <mxGraphModel dx="1418" dy="786" grid="1" gridSize="10" guides="1" tooltips="1" connect="1" arrows="1" fold="1" page="1" pageScale="1" pageWidth="827" pageHeight="1169" math="0" shadow="0">
      <root>
        <mxCell id="0" />
        <mxCell id="1" parent="0" />
        <mxCell id="eNZb_7CVRODXhWYgdVTj-7" style="edgeStyle=orthogonalEdgeStyle;rounded=0;orthogonalLoop=1;jettySize=auto;html=1;entryX=0.5;entryY=0;entryDx=0;entryDy=0;" edge="1" parent="1" source="eNZb_7CVRODXhWYgdVTj-1" target="eNZb_7CVRODXhWYgdVTj-2">
          <mxGeometry relative="1" as="geometry" />
        </mxCell>
        <mxCell id="eNZb_7CVRODXhWYgdVTj-1" value="Inicio" style="ellipse;whiteSpace=wrap;html=1;" vertex="1" parent="1">
          <mxGeometry x="354" y="70" width="120" height="80" as="geometry" />
        </mxCell>
        <mxCell id="eNZb_7CVRODXhWYgdVTj-9" style="edgeStyle=orthogonalEdgeStyle;rounded=0;orthogonalLoop=1;jettySize=auto;html=1;entryX=0.5;entryY=0;entryDx=0;entryDy=0;" edge="1" parent="1" source="eNZb_7CVRODXhWYgdVTj-2" target="eNZb_7CVRODXhWYgdVTj-8">
          <mxGeometry relative="1" as="geometry" />
        </mxCell>
        <mxCell id="eNZb_7CVRODXhWYgdVTj-2" value="Ler N1" style="shape=parallelogram;perimeter=parallelogramPerimeter;whiteSpace=wrap;html=1;fixedSize=1;" vertex="1" parent="1">
          <mxGeometry x="354" y="210" width="120" height="60" as="geometry" />
        </mxCell>
        <mxCell id="eNZb_7CVRODXhWYgdVTj-6" value="fim" style="ellipse;whiteSpace=wrap;html=1;" vertex="1" parent="1">
          <mxGeometry x="760" y="570" width="120" height="80" as="geometry" />
        </mxCell>
        <mxCell id="eNZb_7CVRODXhWYgdVTj-12" style="edgeStyle=orthogonalEdgeStyle;rounded=0;orthogonalLoop=1;jettySize=auto;html=1;entryX=1;entryY=0.5;entryDx=0;entryDy=0;" edge="1" parent="1" source="eNZb_7CVRODXhWYgdVTj-8" target="eNZb_7CVRODXhWYgdVTj-16">
          <mxGeometry relative="1" as="geometry">
            <mxPoint x="270" y="380" as="targetPoint" />
            <Array as="points">
              <mxPoint x="322" y="380" />
              <mxPoint x="322" y="381" />
            </Array>
          </mxGeometry>
        </mxCell>
        <mxCell id="eNZb_7CVRODXhWYgdVTj-13" style="edgeStyle=orthogonalEdgeStyle;rounded=0;orthogonalLoop=1;jettySize=auto;html=1;entryX=0;entryY=0.5;entryDx=0;entryDy=0;" edge="1" parent="1" source="eNZb_7CVRODXhWYgdVTj-8" target="eNZb_7CVRODXhWYgdVTj-11">
          <mxGeometry relative="1" as="geometry" />
        </mxCell>
        <mxCell id="eNZb_7CVRODXhWYgdVTj-8" value="N1&amp;gt;=0" style="rhombus;whiteSpace=wrap;html=1;" vertex="1" parent="1">
          <mxGeometry x="374" y="340" width="80" height="80" as="geometry" />
        </mxCell>
        <mxCell id="eNZb_7CVRODXhWYgdVTj-17" style="edgeStyle=orthogonalEdgeStyle;rounded=0;orthogonalLoop=1;jettySize=auto;html=1;entryX=0.5;entryY=1;entryDx=0;entryDy=0;" edge="1" parent="1" source="eNZb_7CVRODXhWYgdVTj-11" target="eNZb_7CVRODXhWYgdVTj-20">
          <mxGeometry relative="1" as="geometry">
            <mxPoint x="610" y="240" as="targetPoint" />
            <Array as="points">
              <mxPoint x="610" y="250" />
            </Array>
          </mxGeometry>
        </mxCell>
        <mxCell id="eNZb_7CVRODXhWYgdVTj-21" style="edgeStyle=orthogonalEdgeStyle;rounded=0;orthogonalLoop=1;jettySize=auto;html=1;entryX=0;entryY=0.5;entryDx=0;entryDy=0;" edge="1" parent="1" source="eNZb_7CVRODXhWYgdVTj-11" target="eNZb_7CVRODXhWYgdVTj-22">
          <mxGeometry relative="1" as="geometry">
            <mxPoint x="700" y="380" as="targetPoint" />
          </mxGeometry>
        </mxCell>
        <mxCell id="eNZb_7CVRODXhWYgdVTj-11" value="N1=0" style="rhombus;whiteSpace=wrap;html=1;" vertex="1" parent="1">
          <mxGeometry x="570" y="340" width="80" height="80" as="geometry" />
        </mxCell>
        <mxCell id="eNZb_7CVRODXhWYgdVTj-14" value="Verdadeiro" style="text;html=1;align=center;verticalAlign=middle;resizable=0;points=[];autosize=1;strokeColor=none;fillColor=none;" vertex="1" parent="1">
          <mxGeometry x="450" y="338" width="80" height="30" as="geometry" />
        </mxCell>
        <mxCell id="eNZb_7CVRODXhWYgdVTj-15" value="Falso" style="text;html=1;align=center;verticalAlign=middle;resizable=0;points=[];autosize=1;strokeColor=none;fillColor=none;" vertex="1" parent="1">
          <mxGeometry x="295" y="338" width="50" height="30" as="geometry" />
        </mxCell>
        <mxCell id="eNZb_7CVRODXhWYgdVTj-18" style="edgeStyle=orthogonalEdgeStyle;rounded=0;orthogonalLoop=1;jettySize=auto;html=1;entryX=0;entryY=0.5;entryDx=0;entryDy=0;" edge="1" parent="1" source="eNZb_7CVRODXhWYgdVTj-16" target="eNZb_7CVRODXhWYgdVTj-2">
          <mxGeometry relative="1" as="geometry">
            <mxPoint x="220" y="220" as="targetPoint" />
            <Array as="points">
              <mxPoint x="230" y="240" />
            </Array>
          </mxGeometry>
        </mxCell>
        <mxCell id="eNZb_7CVRODXhWYgdVTj-16" value="&quot;Inforrmar que o numero é negativo&quot;" style="shape=parallelogram;perimeter=parallelogramPerimeter;whiteSpace=wrap;html=1;fixedSize=1;" vertex="1" parent="1">
          <mxGeometry x="160" y="350" width="120" height="60" as="geometry" />
        </mxCell>
        <mxCell id="eNZb_7CVRODXhWYgdVTj-19" value="Falso" style="text;html=1;align=center;verticalAlign=middle;resizable=0;points=[];autosize=1;strokeColor=none;fillColor=none;" vertex="1" parent="1">
          <mxGeometry x="615" y="288" width="50" height="30" as="geometry" />
        </mxCell>
        <mxCell id="eNZb_7CVRODXhWYgdVTj-26" style="edgeStyle=orthogonalEdgeStyle;rounded=0;orthogonalLoop=1;jettySize=auto;html=1;entryX=1;entryY=0.5;entryDx=0;entryDy=0;" edge="1" parent="1" source="eNZb_7CVRODXhWYgdVTj-20" target="eNZb_7CVRODXhWYgdVTj-2">
          <mxGeometry relative="1" as="geometry" />
        </mxCell>
        <mxCell id="eNZb_7CVRODXhWYgdVTj-20" value="&quot;Informar que o numero é positivo&quot;" style="shape=parallelogram;perimeter=parallelogramPerimeter;whiteSpace=wrap;html=1;fixedSize=1;" vertex="1" parent="1">
          <mxGeometry x="540" y="210" width="140" height="60" as="geometry" />
        </mxCell>
        <mxCell id="eNZb_7CVRODXhWYgdVTj-25" style="edgeStyle=orthogonalEdgeStyle;rounded=0;orthogonalLoop=1;jettySize=auto;html=1;entryX=0.5;entryY=0;entryDx=0;entryDy=0;" edge="1" parent="1" source="eNZb_7CVRODXhWYgdVTj-22" target="eNZb_7CVRODXhWYgdVTj-6">
          <mxGeometry relative="1" as="geometry">
            <mxPoint x="820" y="550" as="targetPoint" />
          </mxGeometry>
        </mxCell>
        <mxCell id="eNZb_7CVRODXhWYgdVTj-22" value="Escrever &quot;Digitou 0- vai sair do programa&quot;" style="shape=parallelogram;perimeter=parallelogramPerimeter;whiteSpace=wrap;html=1;fixedSize=1;" vertex="1" parent="1">
          <mxGeometry x="710" y="330" width="220" height="80" as="geometry" />
        </mxCell>
        <mxCell id="eNZb_7CVRODXhWYgdVTj-24" value="Verdadeiro" style="text;html=1;align=center;verticalAlign=middle;resizable=0;points=[];autosize=1;strokeColor=none;fillColor=none;" vertex="1" parent="1">
          <mxGeometry x="640" y="350" width="80" height="30" as="geometry" />
        </mxCell>
      </root>
    </mxGraphModel>
  </diagram>
</mxfile>
